<svg width="90" height="90" viewBox="0 0 90 90" fill="none" xmlns="http://www.w3.org/2000/svg">
<rect width="90" height="90" rx="45" fill="#D9D9D9"/>
<rect width="90" height="90" rx="45" fill="url(#paint0_linear_2654_5219)"/>
<path d="M33.1813 59.5833C32.8868 59.5833 32.6396 59.4833 32.4396 59.2833C32.2396 59.0833 32.1396 58.8354 32.1396 58.5396C32.1396 58.2437 32.2396 57.9965 32.4396 57.7979C32.6396 57.5993 32.8868 57.5 33.1813 57.5H56.8188C57.1146 57.5 57.3618 57.6 57.5604 57.8C57.759 58 57.859 58.2479 57.8604 58.5437C57.8618 58.8396 57.7618 59.0868 57.5604 59.2854C57.359 59.484 57.1118 59.5833 56.8188 59.5833H33.1813ZM34.8 53.575C33.9806 53.575 33.2667 53.3181 32.6583 52.8042C32.05 52.2903 31.6597 51.6375 31.4875 50.8458L29 37.6562C28.9306 37.684 28.8528 37.6993 28.7667 37.7021C28.6792 37.7062 28.6007 37.7083 28.5312 37.7083C27.8771 37.7083 27.3333 37.4861 26.9 37.0417C26.4667 36.5972 26.25 36.0583 26.25 35.425C26.25 34.7681 26.4674 34.2097 26.9021 33.75C27.3354 33.2917 27.8799 33.0625 28.5354 33.0625C29.191 33.0625 29.7486 33.2917 30.2083 33.75C30.6667 34.2097 30.8958 34.7681 30.8958 35.425C30.8958 35.5694 30.8903 35.7035 30.8792 35.8271C30.8681 35.9507 30.8271 36.0729 30.7562 36.1937L36.5062 38.5083C36.7729 38.6153 37.0403 38.6292 37.3083 38.55C37.575 38.4694 37.8014 38.309 37.9875 38.0688L43.6167 30.4437C43.3153 30.2465 43.0764 29.9854 42.9 29.6604C42.7236 29.3368 42.6354 28.9875 42.6354 28.6125C42.6354 27.9569 42.8653 27.3993 43.325 26.9396C43.7833 26.4799 44.341 26.25 44.9979 26.25C45.6535 26.25 46.2118 26.4792 46.6729 26.9375C47.134 27.3958 47.3646 27.9514 47.3646 28.6042C47.3646 28.9986 47.2764 29.3542 47.1 29.6708C46.9236 29.9903 46.6847 30.2479 46.3833 30.4437L52.0125 38.0688C52.1986 38.309 52.425 38.4687 52.6917 38.5479C52.9597 38.6299 53.2271 38.6174 53.4937 38.5104L59.2437 36.1937C59.2062 36.0826 59.1736 35.9611 59.1458 35.8292C59.1181 35.6958 59.1042 35.5611 59.1042 35.425C59.1042 34.7681 59.3208 34.2097 59.7542 33.75C60.1875 33.2917 60.7319 33.0625 61.3875 33.0625C62.0431 33.0625 62.6007 33.2917 63.0604 33.75C63.5201 34.2097 63.75 34.7681 63.75 35.425C63.75 36.0556 63.5194 36.5937 63.0583 37.0396C62.5972 37.4854 62.0375 37.7083 61.3792 37.7083C61.3264 37.7083 61.2667 37.7 61.2 37.6833C61.1333 37.6667 61.0597 37.6576 60.9792 37.6562L58.5125 50.8438C58.3389 51.6382 57.9486 52.2917 57.3417 52.8042C56.7347 53.3167 56.0208 53.5736 55.2 53.575H34.8Z" fill="white"/>
<defs>
<linearGradient id="paint0_linear_2654_5219" x1="2.45324e-07" y1="45" x2="64.5995" y2="54.3172" gradientUnits="userSpaceOnUse">
<stop stop-color="#F05A8E"/>
<stop offset="1" stop-color="#ED1C24"/>
</linearGradient>
</defs>
</svg>
